<mxfile host="Electron" modified="2024-03-24T09:29:08.748Z" agent="Mozilla/5.0 (Windows NT 10.0; Win64; x64) AppleWebKit/537.36 (KHTML, like Gecko) draw.io/22.0.2 Chrome/114.0.5735.289 Electron/25.8.4 Safari/537.36" etag="2sYGMJUxdOgvlp8LGyA9" version="22.0.2" type="device">
  <diagram name="Page-1" id="LI1sYk4F6bx3zWB8d0Xb">
    <mxGraphModel dx="1219" dy="722" grid="1" gridSize="10" guides="1" tooltips="1" connect="1" arrows="1" fold="1" page="1" pageScale="1" pageWidth="850" pageHeight="1100" math="0" shadow="0">
      <root>
        <mxCell id="0" />
        <mxCell id="1" parent="0" />
        <mxCell id="9sJnNDiKVlk5eReYRobP-1" value="middlewares" style="rounded=1;whiteSpace=wrap;html=1;fontSize=14;" vertex="1" parent="1">
          <mxGeometry x="200" y="240" width="130" height="80" as="geometry" />
        </mxCell>
        <mxCell id="9sJnNDiKVlk5eReYRobP-2" value="Client" style="shape=umlActor;verticalLabelPosition=bottom;verticalAlign=top;html=1;outlineConnect=0;fontSize=14;" vertex="1" parent="1">
          <mxGeometry x="30" y="240" width="30" height="60" as="geometry" />
        </mxCell>
        <mxCell id="9sJnNDiKVlk5eReYRobP-3" value="&lt;ul style=&quot;line-height: 160%; font-size: 14px;&quot;&gt;&lt;li style=&quot;font-size: 14px;&quot;&gt;deserializeUser&lt;br style=&quot;font-size: 14px;&quot;&gt;&lt;/li&gt;&lt;li style=&quot;font-size: 14px;&quot;&gt;requireUser&lt;br style=&quot;font-size: 14px;&quot;&gt;&lt;/li&gt;&lt;li style=&quot;border-color: var(--border-color); font-size: 14px;&quot;&gt;validateHeader&lt;/li&gt;&lt;/ul&gt;" style="text;html=1;strokeColor=none;fillColor=none;align=left;verticalAlign=middle;whiteSpace=wrap;rounded=0;fontSize=14;" vertex="1" parent="1">
          <mxGeometry x="190" y="150" width="140" height="75" as="geometry" />
        </mxCell>
        <mxCell id="9sJnNDiKVlk5eReYRobP-4" value="registerEvent.ts" style="rounded=1;whiteSpace=wrap;html=1;fontSize=14;" vertex="1" parent="1">
          <mxGeometry x="400" y="240" width="140" height="80" as="geometry" />
        </mxCell>
        <mxCell id="9sJnNDiKVlk5eReYRobP-5" value="user.services.ts" style="rounded=1;whiteSpace=wrap;html=1;fontSize=14;" vertex="1" parent="1">
          <mxGeometry x="770" y="120" width="140" height="80" as="geometry" />
        </mxCell>
        <mxCell id="9sJnNDiKVlk5eReYRobP-6" value="chat.services.ts" style="rounded=1;whiteSpace=wrap;html=1;fontSize=14;" vertex="1" parent="1">
          <mxGeometry x="770" y="240" width="140" height="80" as="geometry" />
        </mxCell>
        <mxCell id="9sJnNDiKVlk5eReYRobP-7" value="..." style="rounded=1;whiteSpace=wrap;html=1;fontSize=14;" vertex="1" parent="1">
          <mxGeometry x="770" y="360" width="140" height="80" as="geometry" />
        </mxCell>
        <mxCell id="9sJnNDiKVlk5eReYRobP-8" value="user.repo.ts" style="rounded=1;whiteSpace=wrap;html=1;fontSize=14;" vertex="1" parent="1">
          <mxGeometry x="980" y="120" width="120" height="80" as="geometry" />
        </mxCell>
        <mxCell id="9sJnNDiKVlk5eReYRobP-9" value="chat.repo.ts" style="rounded=1;whiteSpace=wrap;html=1;fontSize=14;" vertex="1" parent="1">
          <mxGeometry x="980" y="240" width="120" height="80" as="geometry" />
        </mxCell>
        <mxCell id="9sJnNDiKVlk5eReYRobP-10" value="..." style="rounded=1;whiteSpace=wrap;html=1;fontSize=14;" vertex="1" parent="1">
          <mxGeometry x="980" y="360" width="120" height="80" as="geometry" />
        </mxCell>
        <mxCell id="9sJnNDiKVlk5eReYRobP-11" value="MongoDB" style="shape=cylinder3;whiteSpace=wrap;html=1;boundedLbl=1;backgroundOutline=1;size=15;fontSize=14;" vertex="1" parent="1">
          <mxGeometry x="1180" y="225" width="80" height="110" as="geometry" />
        </mxCell>
        <mxCell id="9sJnNDiKVlk5eReYRobP-13" value="" style="endArrow=classic;startArrow=classic;html=1;rounded=0;fontSize=14;" edge="1" parent="1">
          <mxGeometry width="50" height="50" relative="1" as="geometry">
            <mxPoint x="340" y="279.74" as="sourcePoint" />
            <mxPoint x="390" y="280" as="targetPoint" />
          </mxGeometry>
        </mxCell>
        <mxCell id="9sJnNDiKVlk5eReYRobP-14" value="" style="endArrow=classic;startArrow=classic;html=1;rounded=0;fontSize=14;" edge="1" parent="1">
          <mxGeometry width="50" height="50" relative="1" as="geometry">
            <mxPoint x="550" y="279.79" as="sourcePoint" />
            <mxPoint x="610" y="280" as="targetPoint" />
          </mxGeometry>
        </mxCell>
        <mxCell id="9sJnNDiKVlk5eReYRobP-15" value="" style="endArrow=classic;startArrow=classic;html=1;rounded=0;fontSize=14;" edge="1" parent="1">
          <mxGeometry width="50" height="50" relative="1" as="geometry">
            <mxPoint x="710" y="159.58000000000004" as="sourcePoint" />
            <mxPoint x="760" y="159.84000000000003" as="targetPoint" />
          </mxGeometry>
        </mxCell>
        <mxCell id="9sJnNDiKVlk5eReYRobP-16" value="" style="endArrow=classic;startArrow=classic;html=1;rounded=0;fontSize=14;" edge="1" parent="1">
          <mxGeometry width="50" height="50" relative="1" as="geometry">
            <mxPoint x="1170" y="279.66" as="sourcePoint" />
            <mxPoint x="1110" y="279.66" as="targetPoint" />
          </mxGeometry>
        </mxCell>
        <mxCell id="9sJnNDiKVlk5eReYRobP-22" value="&lt;b&gt;/ioMiddlewares&lt;/b&gt;" style="text;html=1;strokeColor=none;fillColor=none;align=center;verticalAlign=middle;whiteSpace=wrap;rounded=0;" vertex="1" parent="1">
          <mxGeometry x="235" y="460" width="60" height="30" as="geometry" />
        </mxCell>
        <mxCell id="9sJnNDiKVlk5eReYRobP-23" value="&lt;b&gt;/io&lt;/b&gt;" style="text;html=1;strokeColor=none;fillColor=none;align=center;verticalAlign=middle;whiteSpace=wrap;rounded=0;" vertex="1" parent="1">
          <mxGeometry x="535" y="460" width="60" height="30" as="geometry" />
        </mxCell>
        <mxCell id="9sJnNDiKVlk5eReYRobP-24" value="&lt;b&gt;/services&lt;/b&gt;" style="text;html=1;strokeColor=none;fillColor=none;align=center;verticalAlign=middle;whiteSpace=wrap;rounded=0;" vertex="1" parent="1">
          <mxGeometry x="810" y="460" width="60" height="30" as="geometry" />
        </mxCell>
        <mxCell id="9sJnNDiKVlk5eReYRobP-25" value="&lt;b&gt;/models/repositories&lt;/b&gt;" style="text;html=1;strokeColor=none;fillColor=none;align=center;verticalAlign=middle;whiteSpace=wrap;rounded=0;" vertex="1" parent="1">
          <mxGeometry x="1010" y="460" width="60" height="30" as="geometry" />
        </mxCell>
        <mxCell id="9sJnNDiKVlk5eReYRobP-26" value="" style="endArrow=classic;html=1;rounded=0;" edge="1" parent="1">
          <mxGeometry width="50" height="50" relative="1" as="geometry">
            <mxPoint x="80" y="260" as="sourcePoint" />
            <mxPoint x="190" y="260" as="targetPoint" />
          </mxGeometry>
        </mxCell>
        <mxCell id="9sJnNDiKVlk5eReYRobP-27" value="emit" style="text;html=1;strokeColor=none;fillColor=none;align=center;verticalAlign=middle;whiteSpace=wrap;rounded=0;" vertex="1" parent="1">
          <mxGeometry x="80" y="240" width="60" height="15" as="geometry" />
        </mxCell>
        <mxCell id="9sJnNDiKVlk5eReYRobP-29" value="" style="endArrow=classic;html=1;rounded=0;" edge="1" parent="1">
          <mxGeometry width="50" height="50" relative="1" as="geometry">
            <mxPoint x="190" y="300" as="sourcePoint" />
            <mxPoint x="80" y="300" as="targetPoint" />
          </mxGeometry>
        </mxCell>
        <mxCell id="9sJnNDiKVlk5eReYRobP-30" value="emit" style="text;html=1;strokeColor=none;fillColor=none;align=center;verticalAlign=middle;whiteSpace=wrap;rounded=0;" vertex="1" parent="1">
          <mxGeometry x="140" y="280" width="60" height="15" as="geometry" />
        </mxCell>
        <mxCell id="9sJnNDiKVlk5eReYRobP-31" value="chat.event" style="ellipse;whiteSpace=wrap;html=1;" vertex="1" parent="1">
          <mxGeometry x="620" y="247.5" width="80" height="65" as="geometry" />
        </mxCell>
        <mxCell id="9sJnNDiKVlk5eReYRobP-35" value="on" style="text;html=1;strokeColor=none;fillColor=none;align=center;verticalAlign=middle;whiteSpace=wrap;rounded=0;" vertex="1" parent="1">
          <mxGeometry x="550" y="350" width="40" height="20" as="geometry" />
        </mxCell>
        <mxCell id="9sJnNDiKVlk5eReYRobP-36" value="on" style="text;html=1;strokeColor=none;fillColor=none;align=center;verticalAlign=middle;whiteSpace=wrap;rounded=0;" vertex="1" parent="1">
          <mxGeometry x="560" y="255" width="40" height="20" as="geometry" />
        </mxCell>
        <mxCell id="9sJnNDiKVlk5eReYRobP-37" value="friend.event" style="ellipse;whiteSpace=wrap;html=1;" vertex="1" parent="1">
          <mxGeometry x="620" y="130" width="80" height="60" as="geometry" />
        </mxCell>
        <mxCell id="9sJnNDiKVlk5eReYRobP-41" value="..." style="ellipse;whiteSpace=wrap;html=1;" vertex="1" parent="1">
          <mxGeometry x="620" y="370" width="80" height="60" as="geometry" />
        </mxCell>
        <mxCell id="9sJnNDiKVlk5eReYRobP-42" value="" style="endArrow=classic;startArrow=classic;html=1;rounded=0;fontSize=14;exitX=1;exitY=1;exitDx=0;exitDy=0;" edge="1" parent="1" source="9sJnNDiKVlk5eReYRobP-4">
          <mxGeometry width="50" height="50" relative="1" as="geometry">
            <mxPoint x="560" y="289.79" as="sourcePoint" />
            <mxPoint x="610" y="380" as="targetPoint" />
          </mxGeometry>
        </mxCell>
        <mxCell id="9sJnNDiKVlk5eReYRobP-43" value="" style="endArrow=classic;startArrow=classic;html=1;rounded=0;fontSize=14;exitX=1;exitY=0;exitDx=0;exitDy=0;" edge="1" parent="1" source="9sJnNDiKVlk5eReYRobP-4">
          <mxGeometry width="50" height="50" relative="1" as="geometry">
            <mxPoint x="560" y="289.79" as="sourcePoint" />
            <mxPoint x="610" y="190" as="targetPoint" />
          </mxGeometry>
        </mxCell>
        <mxCell id="9sJnNDiKVlk5eReYRobP-44" value="on" style="text;html=1;strokeColor=none;fillColor=none;align=center;verticalAlign=middle;whiteSpace=wrap;rounded=0;" vertex="1" parent="1">
          <mxGeometry x="540" y="200" width="50" height="20" as="geometry" />
        </mxCell>
        <mxCell id="9sJnNDiKVlk5eReYRobP-45" value="" style="endArrow=classic;startArrow=classic;html=1;rounded=0;fontSize=14;" edge="1" parent="1">
          <mxGeometry width="50" height="50" relative="1" as="geometry">
            <mxPoint x="710" y="280.00000000000006" as="sourcePoint" />
            <mxPoint x="760" y="280.26000000000005" as="targetPoint" />
          </mxGeometry>
        </mxCell>
        <mxCell id="9sJnNDiKVlk5eReYRobP-46" value="" style="endArrow=classic;startArrow=classic;html=1;rounded=0;fontSize=14;" edge="1" parent="1">
          <mxGeometry width="50" height="50" relative="1" as="geometry">
            <mxPoint x="710" y="399.76000000000005" as="sourcePoint" />
            <mxPoint x="760" y="400.02000000000004" as="targetPoint" />
          </mxGeometry>
        </mxCell>
        <mxCell id="9sJnNDiKVlk5eReYRobP-47" value="" style="endArrow=classic;startArrow=classic;html=1;rounded=0;fontSize=14;" edge="1" parent="1">
          <mxGeometry width="50" height="50" relative="1" as="geometry">
            <mxPoint x="920" y="159.66000000000005" as="sourcePoint" />
            <mxPoint x="970" y="159.92000000000004" as="targetPoint" />
          </mxGeometry>
        </mxCell>
        <mxCell id="9sJnNDiKVlk5eReYRobP-48" value="" style="endArrow=classic;startArrow=classic;html=1;rounded=0;fontSize=14;" edge="1" parent="1">
          <mxGeometry width="50" height="50" relative="1" as="geometry">
            <mxPoint x="920" y="280.00000000000006" as="sourcePoint" />
            <mxPoint x="970" y="280.26000000000005" as="targetPoint" />
          </mxGeometry>
        </mxCell>
        <mxCell id="9sJnNDiKVlk5eReYRobP-49" value="" style="endArrow=classic;startArrow=classic;html=1;rounded=0;fontSize=14;" edge="1" parent="1">
          <mxGeometry width="50" height="50" relative="1" as="geometry">
            <mxPoint x="920" y="399.6600000000001" as="sourcePoint" />
            <mxPoint x="970" y="399.9200000000001" as="targetPoint" />
          </mxGeometry>
        </mxCell>
        <mxCell id="9sJnNDiKVlk5eReYRobP-50" value="" style="endArrow=none;dashed=1;html=1;dashPattern=1 3;strokeWidth=2;rounded=0;strokeColor=#B3B3B3;" edge="1" parent="1">
          <mxGeometry width="50" height="50" relative="1" as="geometry">
            <mxPoint x="139.41" y="480" as="sourcePoint" />
            <mxPoint x="139.41" y="80" as="targetPoint" />
          </mxGeometry>
        </mxCell>
        <mxCell id="9sJnNDiKVlk5eReYRobP-52" value="" style="endArrow=none;dashed=1;html=1;dashPattern=1 3;strokeWidth=2;rounded=0;strokeColor=#B3B3B3;" edge="1" parent="1">
          <mxGeometry width="50" height="50" relative="1" as="geometry">
            <mxPoint x="360" y="480" as="sourcePoint" />
            <mxPoint x="360" y="80" as="targetPoint" />
          </mxGeometry>
        </mxCell>
        <mxCell id="9sJnNDiKVlk5eReYRobP-53" value="" style="endArrow=none;dashed=1;html=1;dashPattern=1 3;strokeWidth=2;rounded=0;strokeColor=#B3B3B3;" edge="1" parent="1">
          <mxGeometry width="50" height="50" relative="1" as="geometry">
            <mxPoint x="730" y="480" as="sourcePoint" />
            <mxPoint x="730" y="80" as="targetPoint" />
          </mxGeometry>
        </mxCell>
        <mxCell id="9sJnNDiKVlk5eReYRobP-54" value="" style="endArrow=none;dashed=1;html=1;dashPattern=1 3;strokeWidth=2;rounded=0;strokeColor=#B3B3B3;" edge="1" parent="1">
          <mxGeometry width="50" height="50" relative="1" as="geometry">
            <mxPoint x="940" y="480" as="sourcePoint" />
            <mxPoint x="940" y="80" as="targetPoint" />
          </mxGeometry>
        </mxCell>
        <mxCell id="9sJnNDiKVlk5eReYRobP-55" value="" style="endArrow=none;dashed=1;html=1;dashPattern=1 3;strokeWidth=2;rounded=0;strokeColor=#B3B3B3;" edge="1" parent="1">
          <mxGeometry width="50" height="50" relative="1" as="geometry">
            <mxPoint x="1140" y="480" as="sourcePoint" />
            <mxPoint x="1140" y="80" as="targetPoint" />
          </mxGeometry>
        </mxCell>
      </root>
    </mxGraphModel>
  </diagram>
</mxfile>
